<svg xmlns="http://www.w3.org/2000/svg" xmlns:xlink="http://www.w3.org/1999/xlink" width="32" height="32" viewBox="0 0 32 32">
  <defs>
    <linearGradient id="linear-gradient" x1="0.5" x2="0.5" y2="1" gradientUnits="objectBoundingBox">
      <stop offset="0" stop-color="#00faa0"/>
      <stop offset="0.619" stop-color="#0587b9"/>
      <stop offset="1" stop-color="#001441"/>
    </linearGradient>
  </defs>
  <g id="email" transform="translate(0 0)">
    <path id="email-2" data-name="email" d="M10128-519a16,16,0,0,1,16-16,16,16,0,0,1,16,16,16,16,0,0,1-16,16A16,16,0,0,1,10128-519Zm10.29-13.515a14.6,14.6,0,0,0-4.661,3.145,14.612,14.612,0,0,0-3.144,4.662,14.559,14.559,0,0,0-1.152,5.709,14.552,14.552,0,0,0,1.152,5.709,14.619,14.619,0,0,0,3.144,4.663,14.622,14.622,0,0,0,4.661,3.143,14.584,14.584,0,0,0,5.709,1.153,14.577,14.577,0,0,0,5.709-1.153,14.63,14.63,0,0,0,4.663-3.143,14.651,14.651,0,0,0,3.144-4.663,14.569,14.569,0,0,0,1.152-5.709,14.576,14.576,0,0,0-1.152-5.709,14.644,14.644,0,0,0-3.144-4.662,14.608,14.608,0,0,0-4.663-3.145,14.576,14.576,0,0,0-5.709-1.151A14.583,14.583,0,0,0,10138.291-532.515Zm2.113,21.945a6.269,6.269,0,0,1-2.486-1.634,6.877,6.877,0,0,1-1.491-2.7,11.537,11.537,0,0,1-.417-3.746,11.5,11.5,0,0,1,.717-3.594,8.9,8.9,0,0,1,1.727-2.855,7.879,7.879,0,0,1,2.634-1.885,8.256,8.256,0,0,1,3.412-.683,8.6,8.6,0,0,1,3.307.593,6.411,6.411,0,0,1,2.385,1.663,6.83,6.83,0,0,1,1.415,2.573,9.856,9.856,0,0,1,.385,3.315,9.117,9.117,0,0,1-.294,1.973,5.707,5.707,0,0,1-.767,1.733,4.033,4.033,0,0,1-1.3,1.231,3.665,3.665,0,0,1-1.9.47,2.747,2.747,0,0,1-1.375-.337,2.338,2.338,0,0,1-.928-.952,2.944,2.944,0,0,1-2.49,1.251,2.572,2.572,0,0,1-1.241-.3,2.587,2.587,0,0,1-.932-.867,3.814,3.814,0,0,1-.54-1.354,5.833,5.833,0,0,1-.071-1.767,8.276,8.276,0,0,1,.538-2.162,5.856,5.856,0,0,1,.994-1.657,4.215,4.215,0,0,1,1.367-1.057,3.822,3.822,0,0,1,1.664-.369,5.179,5.179,0,0,1,.994.085,4.136,4.136,0,0,1,.771.232,4.2,4.2,0,0,1,.64.337c.194.126.392.257.587.388l-.482,5.557a1.82,1.82,0,0,0,.013.65.914.914,0,0,0,.2.4.721.721,0,0,0,.322.209,1.191,1.191,0,0,0,1.13-.223,2.387,2.387,0,0,0,.606-.771,4.926,4.926,0,0,0,.409-1.159,8.005,8.005,0,0,0,.178-1.445,9.18,9.18,0,0,0-.228-2.7,5.339,5.339,0,0,0-1-2.089,4.645,4.645,0,0,0-1.791-1.345,6.509,6.509,0,0,0-2.608-.477,5.751,5.751,0,0,0-2.579.562,5.929,5.929,0,0,0-1.962,1.56,7.513,7.513,0,0,0-1.283,2.344,10.538,10.538,0,0,0-.54,2.922,9.78,9.78,0,0,0,.275,2.981,5.384,5.384,0,0,0,1.091,2.138,4.522,4.522,0,0,0,1.846,1.282,7.05,7.05,0,0,0,2.547.426,8.759,8.759,0,0,0,1.672-.179c.273-.056.536-.123.785-.194a5.939,5.939,0,0,0,.677-.243l.349,1.573a3.8,3.8,0,0,1-.757.375,7.085,7.085,0,0,1-.9.259,8.63,8.63,0,0,1-1.869.209A9.807,9.807,0,0,1,10140.4-510.57Zm2.311-6.012a1,1,0,0,0,.96.628,1.026,1.026,0,0,0,.327-.061,1.141,1.141,0,0,0,.38-.226,2.048,2.048,0,0,0,.383-.463,3.511,3.511,0,0,0,.353-.783l.378-4.318a2.319,2.319,0,0,0-.588-.077,2.024,2.024,0,0,0-.975.223,1.933,1.933,0,0,0-.691.657,3.783,3.783,0,0,0-.458,1.081,9.089,9.089,0,0,0-.261,1.478h0A3.758,3.758,0,0,0,10142.715-516.582Z" transform="translate(-10128.001 534.999)" fill="url(#linear-gradient)"/>
  </g>
</svg>
