<svg xmlns="http://www.w3.org/2000/svg" xmlns:xlink="http://www.w3.org/1999/xlink" width="32" height="32" viewBox="0 0 32 32">
  <defs>
    <linearGradient id="linear-gradient" x1="0.5" x2="0.5" y2="1" gradientUnits="objectBoundingBox">
      <stop offset="0" stop-color="#00faa0"/>
      <stop offset="0.619" stop-color="#0587b9"/>
      <stop offset="1" stop-color="#001441"/>
    </linearGradient>
  </defs>
  <g id="github" transform="translate(0 0)">
    <path id="github-2" data-name="github" d="M10128-519a16,16,0,0,1,16-16,16,16,0,0,1,16,16,16,16,0,0,1-16,16A16,16,0,0,1,10128-519Zm10.29-13.515a14.6,14.6,0,0,0-4.661,3.145,14.612,14.612,0,0,0-3.144,4.662,14.559,14.559,0,0,0-1.152,5.709,14.552,14.552,0,0,0,1.152,5.709,14.619,14.619,0,0,0,3.144,4.663,14.622,14.622,0,0,0,4.661,3.143,14.584,14.584,0,0,0,5.709,1.153,14.577,14.577,0,0,0,5.709-1.153,14.63,14.63,0,0,0,4.663-3.143,14.651,14.651,0,0,0,3.144-4.663,14.569,14.569,0,0,0,1.152-5.709,14.576,14.576,0,0,0-1.152-5.709,14.644,14.644,0,0,0-3.144-4.662,14.608,14.608,0,0,0-4.663-3.145,14.576,14.576,0,0,0-5.709-1.151A14.583,14.583,0,0,0,10138.291-532.515Zm-1.617,17.155a7.14,7.14,0,0,1-.674-3.167,5.741,5.741,0,0,1,1.384-3.786,5.2,5.2,0,0,1-.257-1.626,3.325,3.325,0,0,1,.486-1.728,5.212,5.212,0,0,1,3.627,1.2,12.784,12.784,0,0,1,2.958-.332,11.446,11.446,0,0,1,2.68.307,5.144,5.144,0,0,1,3.592-1.175,3.29,3.29,0,0,1,.487,1.728,5.137,5.137,0,0,1-.257,1.606,5.741,5.741,0,0,1,1.3,3.807,7.227,7.227,0,0,1-.584,3.167c-1.262,2.554-4.736,2.494-7.223,2.494h-.5C10141.205-512.865,10137.9-512.942,10136.674-515.359Zm1.543-1.483c0,2.927,2.68,3.376,5.014,3.376h1.607c2.343,0,5.02-.446,5.02-3.376a2.518,2.518,0,0,0-2.45-2.753,13.677,13.677,0,0,0-1.866.2,9.812,9.812,0,0,1-1.5.107,9.851,9.851,0,0,1-1.5-.107,13.465,13.465,0,0,0-1.867-.2A2.518,2.518,0,0,0,10138.217-516.842Zm7.665,0c0-.7.362-1.837,1.223-1.837s1.224,1.141,1.224,1.837-.364,1.837-1.224,1.837S10145.882-516.146,10145.882-516.842Zm-6.124,0c0-.7.362-1.837,1.222-1.837s1.225,1.141,1.225,1.837-.364,1.837-1.225,1.837S10139.758-516.146,10139.758-516.842Z" transform="translate(-10128.001 534.999)" fill="url(#linear-gradient)"/>
  </g>
</svg>
