<svg id="icon_seta" data-name="icon / seta" xmlns="http://www.w3.org/2000/svg" xmlns:xlink="http://www.w3.org/1999/xlink" width="18.334" height="20.789" viewBox="0 0 18.334 20.789">
  <defs>
    <linearGradient id="linear-gradient" x1="0.5" x2="0.5" y2="1" gradientUnits="objectBoundingBox">
      <stop offset="0" stop-color="#00faa0"/>
      <stop offset="0.619" stop-color="#0587b9"/>
      <stop offset="1" stop-color="#001441"/>
    </linearGradient>
  </defs>
  <path id="Union_4" data-name="Union 4" d="M8919.667-1058.3v-15.961l-6.459,6.459a1,1,0,0,1-1.414,0,1,1,0,0,1,0-1.414l8.146-8.146c.012-.013.025-.026.038-.038l.688-.688,8.873,8.873a1,1,0,0,1,0,1.414,1,1,0,0,1-.706.294,1,1,0,0,1-.706-.294l-6.461-6.459v15.962a1,1,0,0,1-1,1A1,1,0,0,1,8919.667-1058.3Z" transform="translate(-8911.5 1078.085)" fill="url(#linear-gradient)"/>
</svg>
