<svg xmlns="http://www.w3.org/2000/svg" xmlns:xlink="http://www.w3.org/1999/xlink" width="16" height="16" viewBox="0 0 16 16">
  <defs>
    <linearGradient id="linear-gradient" x1="0.5" x2="0.5" y2="1" gradientUnits="objectBoundingBox">
      <stop offset="0" stop-color="#00faa0"/>
      <stop offset="0.619" stop-color="#0587b9"/>
      <stop offset="1" stop-color="#001441"/>
    </linearGradient>
  </defs>
  <path id="Icon_awesome-linkedin-in" data-name="Icon awesome-linkedin-in" d="M3.582,16H.264V5.318H3.582ZM1.921,3.861A1.93,1.93,0,1,1,3.842,1.922,1.937,1.937,0,0,1,1.921,3.861ZM16,16h-3.31V10.8c0-1.239-.025-2.829-1.725-2.829-1.725,0-1.989,1.346-1.989,2.739V16H5.659V5.318H8.841V6.775h.046A3.486,3.486,0,0,1,12.026,5.05C15.383,5.05,16,7.261,16,10.133V16Z" transform="translate(0 -0.001)" fill="url(#linear-gradient)"/>
</svg>
