<svg xmlns="http://www.w3.org/2000/svg" xmlns:xlink="http://www.w3.org/1999/xlink" width="16" height="12.801" viewBox="0 0 16 12.801">
  <defs>
    <linearGradient id="linear-gradient" x1="0.5" x2="0.5" y2="1" gradientUnits="objectBoundingBox">
      <stop offset="0" stop-color="#00faa0"/>
      <stop offset="0.619" stop-color="#0587b9"/>
      <stop offset="1" stop-color="#001441"/>
    </linearGradient>
  </defs>
  <path id="Icon_awesome-github-alt" data-name="Icon awesome-github-alt" d="M6.2,13.324c0,.7-.363,1.837-1.223,1.837s-1.223-1.14-1.223-1.837.363-1.837,1.223-1.837S6.2,12.627,6.2,13.324ZM16,11.64a7.224,7.224,0,0,1-.583,3.167C14.154,17.36,10.68,17.3,8.193,17.3c-2.527,0-6.207.09-7.52-2.493A7.135,7.135,0,0,1,0,11.64,5.733,5.733,0,0,1,1.383,7.853a5.218,5.218,0,0,1-.257-1.627A3.319,3.319,0,0,1,1.613,4.5,5.208,5.208,0,0,1,5.24,5.7,12.768,12.768,0,0,1,8.2,5.367a11.5,11.5,0,0,1,2.68.307A5.152,5.152,0,0,1,14.47,4.5a3.288,3.288,0,0,1,.487,1.727A5.145,5.145,0,0,1,14.7,7.833,5.743,5.743,0,0,1,16,11.64Zm-2.143,1.683a2.518,2.518,0,0,0-2.45-2.753,13.706,13.706,0,0,0-1.867.2,9.794,9.794,0,0,1-1.5.107,9.854,9.854,0,0,1-1.5-.107,13.483,13.483,0,0,0-1.867-.2,2.518,2.518,0,0,0-2.45,2.753C2.217,16.25,4.9,16.7,7.23,16.7H8.837c2.343,0,5.02-.447,5.02-3.377ZM11.1,11.487c-.86,0-1.223,1.14-1.223,1.837s.363,1.837,1.223,1.837,1.223-1.14,1.223-1.837S11.964,11.487,11.1,11.487Z" transform="translate(0 -4.5)" fill="url(#linear-gradient)"/>
</svg>
