<svg xmlns="http://www.w3.org/2000/svg" xmlns:xlink="http://www.w3.org/1999/xlink" width="32" height="32" viewBox="0 0 32 32">
  <defs>
    <linearGradient id="linear-gradient" x1="0.5" x2="0.5" y2="1" gradientUnits="objectBoundingBox">
      <stop offset="0" stop-color="#00faa0"/>
      <stop offset="0.619" stop-color="#0587b9"/>
      <stop offset="1" stop-color="#001441"/>
    </linearGradient>
  </defs>
  <g id="linkedin" transform="translate(0 0)">
    <path id="linkedin-2" data-name="linkedin" d="M10128-519a16,16,0,0,1,16-16,16,16,0,0,1,16,16,16,16,0,0,1-16,16A16,16,0,0,1,10128-519Zm10.29-13.515a14.6,14.6,0,0,0-4.661,3.145,14.612,14.612,0,0,0-3.144,4.662,14.559,14.559,0,0,0-1.152,5.709,14.552,14.552,0,0,0,1.152,5.709,14.619,14.619,0,0,0,3.144,4.663,14.622,14.622,0,0,0,4.661,3.143,14.584,14.584,0,0,0,5.709,1.153,14.577,14.577,0,0,0,5.709-1.153,14.63,14.63,0,0,0,4.663-3.143,14.651,14.651,0,0,0,3.144-4.663,14.569,14.569,0,0,0,1.152-5.709,14.576,14.576,0,0,0-1.152-5.709,14.644,14.644,0,0,0-3.144-4.662,14.608,14.608,0,0,0-4.663-3.145,14.576,14.576,0,0,0-5.709-1.151A14.583,14.583,0,0,0,10138.291-532.515ZM10152-511h-3.31v-5.2c0-1.239-.025-2.83-1.725-2.83-1.725,0-1.989,1.347-1.989,2.74V-511h-3.312v-10.682h3.18v1.456h.047a3.486,3.486,0,0,1,3.139-1.725c3.357,0,3.975,2.212,3.975,5.082V-511Zm-15.731,0v-10.682h3.316V-511Zm-.266-14.079a1.923,1.923,0,0,1,1.922-1.922,1.922,1.922,0,0,1,1.921,1.922,1.938,1.938,0,0,1-1.921,1.939A1.938,1.938,0,0,1,10136-525.078Z" transform="translate(-10128.001 534.999)" fill="url(#linear-gradient)"/>
  </g>
</svg>
